<?xml version="1.0" encoding="UTF-8"?>
<svg xmlns="http://www.w3.org/2000/svg" viewBox="0 0 230 60.75">
  <defs>
    <style>.cls-1{fill:#134981;}.cls-2{fill:#0d90d0;}.cls-3{fill:#fff;}</style>
  </defs>
  <title>Ativo 1</title>
  <g id="Camada_2" data-name="Camada 2">
    <g id="Camada_1-2" data-name="Camada 1">
      <path class="cls-1" d="M.71,43.9h9.68a.72.72,0,0,0,.69-.52L22.56.89A.71.71,0,0,0,21.87,0H12.19a.71.71,0,0,0-.68.52L0,43a.71.71,0,0,0,.69.89"></path>
      <path class="cls-2" d="M10.3,60.75H20a.7.7,0,0,0,.68-.52L32.14,17.74a.7.7,0,0,0-.68-.89H21.78a.71.71,0,0,0-.69.52L9.61,59.86a.71.71,0,0,0,.69.89"></path>
      <path class="cls-1" d="M29,43.9h9.69a.7.7,0,0,0,.68-.52L46.3,17.74a.7.7,0,0,0-.68-.89H35.93a.7.7,0,0,0-.68.52L28.34,43a.71.71,0,0,0,.68.89"></path>
      <path class="cls-1" d="M48.59,43.9h174a1.07,1.07,0,0,0,1-.78L230,18.19a1.06,1.06,0,0,0-1-1.34H55.31a1.07,1.07,0,0,0-1,.78L47.56,42.56a1.06,1.06,0,0,0,1,1.34"></path>
      <path class="cls-3" d="M220.68,36.69a1.18,1.18,0,0,1-2.35,0,1.18,1.18,0,0,1,2.35,0m-2.06,0a.88.88,0,0,0,.89.91.87.87,0,0,0,.87-.9.88.88,0,1,0-1.76,0m.71.6h-.27V36.15a1.73,1.73,0,0,1,.44,0,.83.83,0,0,1,.4.08.33.33,0,0,1,.11.26.29.29,0,0,1-.24.26h0A.37.37,0,0,1,220,37a1,1,0,0,0,.08.29h-.28a.75.75,0,0,1-.09-.28c0-.13-.09-.18-.24-.18h-.12Zm0-.65h.13c.14,0,.26,0,.26-.17s-.07-.17-.24-.17h-.15Z"></path>
      <path class="cls-3" d="M60.76,22.91h6.61c4.59,0,5.7,1.68,5.7,3.52s-1.22,3.33-3.5,3.92A3,3,0,0,1,72,33.3c0,2.52-2,4.54-7.12,4.54H56.75ZM65,34.07c1.21,0,1.94-.54,1.94-1.28s-.54-.94-1.6-.94H63.21l-.59,2.22Zm1.32-5.29c1.28,0,1.86-.58,1.86-1.22s-.47-.88-1.54-.88H64.6l-.55,2.1Z"></path>
      <polygon class="cls-3" points="76.61 22.91 89.34 22.91 88.23 27 80.4 27 80 28.52 87.85 28.52 86.89 32.13 79.04 32.13 78.59 33.75 86.53 33.75 85.44 37.84 72.6 37.84 76.61 22.91"></polygon>
      <polygon class="cls-3" points="91.62 22.91 96.55 22.91 98.34 28.16 102.95 22.91 108.43 22.91 104.42 37.84 99.45 37.84 101.43 30.44 96.57 35.75 96.48 35.75 94.48 30.44 92.5 37.84 87.61 37.84 91.62 22.91"></polygon>
      <path class="cls-3" d="M114.32,22.91h5c2.75,0,4.44.53,5.55,1.64a4.14,4.14,0,0,1,1.17,3c0,3.73-2.81,6.23-7.55,6.23h-2.11l-1.09,4.05h-5Zm3.92,7.32c1.9,0,2.78-.86,2.78-2a1.21,1.21,0,0,0-.37-.87,2.15,2.15,0,0,0-1.49-.47h-.94l-.87,3.33Z"></path>
      <path class="cls-3" d="M129.16,22.91H135c2.75,0,4.5.6,5.5,1.6a4.27,4.27,0,0,1,1.17,3.11c0,2.33-1.21,4.33-4.16,5.25l2.07,5H134.2l-1.67-4.26H131.3l-1.16,4.26h-5Zm4.89,7.1c1.66,0,2.54-.77,2.54-1.7a1.1,1.1,0,0,0-.32-.79,2.06,2.06,0,0,0-1.48-.43H133L132.23,30Z"></path>
      <path class="cls-3" d="M142.38,31.38a8.82,8.82,0,0,1,8.79-8.77c4.4,0,7.42,2.94,7.42,6.76a8.81,8.81,0,0,1-8.78,8.77c-4.4,0-7.43-2.94-7.43-6.76m11.2-1.56A2.62,2.62,0,0,0,150.83,27c-2.09,0-3.43,2.05-3.43,3.93a2.62,2.62,0,0,0,2.75,2.82c2.09,0,3.43-2.05,3.43-3.93"></path>
      <polygon class="cls-3" points="163.97 27.13 159.57 27.13 160.7 22.91 174.48 22.91 173.35 27.13 168.96 27.13 166.08 37.84 161.09 37.84 163.97 27.13"></polygon>
      <polygon class="cls-3" points="176.23 22.91 188.96 22.91 187.85 27 180.03 27 179.62 28.52 187.31 28.52 186.35 32.13 178.66 32.13 178.21 33.75 186.15 33.75 185.06 37.84 172.22 37.84 176.23 22.91"></polygon>
      <path class="cls-3" d="M188.49,31.51c0-4.89,3.84-8.92,9.86-8.92a8.49,8.49,0,0,1,6.25,2.47l-3.12,3.2A5.2,5.2,0,0,0,198,26.92a4.24,4.24,0,0,0-4.53,4.35A2.67,2.67,0,0,0,196.41,34a3.22,3.22,0,0,0,1.3-.23l.49-1.6h-2.46l.81-3.2h7.19l-2.13,7.62a11.71,11.71,0,0,1-5.74,1.53c-3.71,0-7.38-2-7.38-6.65"></path>
      <polygon class="cls-3" points="207.56 22.91 220.29 22.91 219.18 27 211.35 27 210.95 28.52 218.81 28.52 217.85 32.13 209.99 32.13 209.54 33.75 217.48 33.75 216.39 37.84 203.55 37.84 207.56 22.91"></polygon>
    </g>
  </g>
</svg>
